<?xml version="1.0" encoding="utf-8"?>
<!-- Generator: Adobe Illustrator 25.0.1, SVG Export Plug-In . SVG Version: 6.00 Build 0)  -->
<svg version="1.0" id="katman_1" xmlns="http://www.w3.org/2000/svg" xmlns:xlink="http://www.w3.org/1999/xlink" x="0px" y="0px"
	 viewBox="0 0 166 108" style="enable-background:new 0 0 166 108;" xml:space="preserve">
<style type="text/css">
	.st0{fill-rule:evenodd;clip-rule:evenodd;fill:#C41F3E;}
	.st1{fill-rule:evenodd;clip-rule:evenodd;fill:#8B1D41;}
</style>
<g id="Logo-_x2F_-Colour-_x2F_-desktop-header-142x36">
	<g id="Group" transform="translate(0.000000, -0.000000)">
		<path id="Path" class="st0" d="M33.3,62.8c-1.4,1.1-3.2,1.7-5,1.6c-5.2,0-8.6-3.9-8.6-10.2c0-6.4,3.4-10.3,8.6-10.3
			c1.7-0.1,3.4,0.4,4.7,1.4l3.9-5.2c-2.4-1.6-4.7-2.6-9.3-2.6c-9.9,0-15.6,6.7-15.6,16.7c0,10.2,5.9,16.6,15.6,16.6
			c6.2,0,8.5-2.1,9.6-2.9L33.3,62.8z"/>
		<path id="Path_1_" class="st0" d="M103.1,62.7c-1.4,1.1-3.2,1.7-5.1,1.7c-5.2,0-8.6-3.9-8.6-10.2c0-6.4,3.4-10.3,8.6-10.3
			c1.7-0.1,3.4,0.4,4.7,1.4l3.9-5.2c-2.4-1.6-4.7-2.6-9.3-2.6c-9.9,0-15.6,6.7-15.6,16.7c0,10.2,5.9,16.6,15.6,16.6
			c6.2,0,8.5-2.1,9.6-2.9L103.1,62.7z"/>
		<path id="Combined-Shape" class="st0" d="M66.4,38.1c7.1,0,10.8,2.8,10.8,8.2c0,3.9-2.5,5.9-5,6.9l0,0.1c2.9,0.8,6.2,2.7,6.2,7.8
			c0,5.9-4.4,9.2-12.3,9.2H54.8V38.1H66.4z M65.4,56.3h-3.1v8.3h3.2c3.2,0,5.4-1.3,5.4-4.1C70.9,57.6,68.8,56.3,65.4,56.3z
			 M65.4,43.4h-3.1v7.5h2.9c2.8,0,4.9-1.1,4.9-3.7C70.1,45.5,69,43.4,65.4,43.4z"/>
		<polygon id="Path_2_" class="st0" points="40.5,70.2 47.9,70.2 47.9,38.1 40.5,38.1 		"/>
		<path id="Fill-3" class="st0" d="M141.6,37.4c-0.7-0.9-1.7-1.4-2.9-1.4h-12c1.2,0,2.2,0.5,2.9,1.4C130.9,39,142,54.2,142,54.2
			s-11.1,15.1-12.3,16.7c-0.7,0.9-1.8,1.5-2.9,1.4h12c1.1,0,2.2-0.5,2.9-1.4L154,54.2L141.6,37.4z"/>
		<path id="Fill-6" class="st1" d="M132.8,41.6L132.8,41.6c-1.5-2.1-2.7-3.7-3.1-4.2c-0.7-0.9-1.8-1.5-2.9-1.4
			c-1.1,0-2.2,0.5-2.9,1.4l-12.4,16.8l12.4,16.8c0.7,0.9,1.8,1.4,2.9,1.4c1.1,0,2.2-0.5,2.9-1.4l3.1-4.2l-9.3-12.6L132.8,41.6z"/>
	</g>
</g>
</svg>
