<?xml version="1.0" encoding="utf-8"?>
<!-- Generator: Adobe Illustrator 23.0.3, SVG Export Plug-In . SVG Version: 6.00 Build 0)  -->
<svg version="1.1" id="Layer_1" xmlns="http://www.w3.org/2000/svg" xmlns:xlink="http://www.w3.org/1999/xlink" x="0px" y="0px"
	 viewBox="0 0 310 44" style="enable-background:new 0 0 310 44;" xml:space="preserve">
<style type="text/css">
	.st0{fill:#EC111A;}
</style>
<g>
	<path class="st0" d="M75,13.3c-8.4,0-15.3,6.9-15.3,15.3S66.5,43.9,75,43.9s15.3-6.9,15.3-15.3S83.4,13.3,75,13.3z M75,35.4
		c-3.7,0-6.7-3-6.7-6.7s3-6.7,6.7-6.7s6.7,3,6.7,6.7S78.7,35.4,75,35.4z"/>
	<polygon class="st0" points="109.8,14.1 105.6,14.1 105.6,5 96.4,5 96.4,14.1 92.3,14.1 92.3,22.3 96.4,22.3 96.4,43.2 105.6,43.2 
		105.6,22.3 109.8,22.3 	"/>
	<rect x="113.9" y="14.1" class="st0" width="9.1" height="29.1"/>
	<path class="st0" d="M118.5-0.1c-2.8,0-5.1,2.3-5.1,5.1s2.3,5.1,5.1,5.1c2.8,0,5.1-2.3,5.1-5.1S121.3-0.1,118.5-0.1z"/>
	<path class="st0" d="M249.7,21.9c3,0,5.4,2.4,5.4,5.4v15.8h9.1V26.1c0-7.8-4.5-12.8-11.5-12.8c-2.9,0-6,1.3-8.5,5.3v-4.6h-9.1v29.1
		h9.1V27.4C244.2,24.4,246.7,21.9,249.7,21.9z"/>
	<polygon class="st0" points="297.6,43.2 286.4,28.6 296.8,14.1 286.1,14.1 277.7,25.8 277.7,0.7 268.6,0.7 268.6,43.2 277.7,43.2 
		277.7,31.2 287,43.2 	"/>
	<path class="st0" d="M28.2,35.4c0.7-1.6,0.9-3.2,0.9-5.4c0-2.9-0.9-5.6-2.6-7.4c-2-2.1-5.3-3.9-9.9-5.3c-1-0.3-1.9-0.6-2.6-1
		c-0.8-0.4-1.4-0.9-1.9-1.4c-0.6-0.6-0.8-1.4-0.8-2.4c0-1.4,0.7-2.3,1.9-3c1.5-0.9,4.3-1,7.2,0.1c1,0.4,1.9,0.8,3,1.4l3.9-7.7
		c-1.4-0.9-3.5-2-5.6-2.5c-2.1-0.5-4.1-0.8-6.2-0.8c-2.1,0-4.1,0.3-5.8,1C8.1,1.5,6.5,2.5,5.2,3.8C3.9,5,2.8,6.6,2.2,8.2
		c-0.6,1.6-1,3.4-1,5.4c0,2.1,1,5.4,3.4,7.7c2.7,2.5,5.7,3.4,6.9,3.9c1.2,0.5,2.6,0.9,3.4,1.2c0.9,0.4,1.9,0.8,2.5,1.3
		c0.6,0.5,1,0.9,1.3,1.5c0.3,0.6,0.3,1.1,0.3,1.9c-0.1,1-0.5,1.8-1.3,2.5c-0.8,0.7-2.2,1.2-4.2,1.2c-1.7,0-3.4-0.5-5.1-1.2
		C7,32.8,6,32.2,4.4,31.2l-4.6,8c3.2,2.8,8.4,4.7,13,4.7c2.4,0,4.8-0.4,6.9-1.1c2-0.7,3.9-1.8,5.2-2.9
		C26.3,38.7,27.5,36.9,28.2,35.4z"/>
	<g>
		<path class="st0" d="M304.1,33c-2.8,0-5.1,2.3-5.1,5.1s2.3,5.1,5.1,5.1c2.8,0,5.1-2.3,5.1-5.1S306.9,33,304.1,33z M304.1,42.2
			c-2.2,0-4.1-1.8-4.1-4.1c0-2.2,1.8-4.1,4.1-4.1s4.1,1.8,4.1,4.1C308.1,40.4,306.3,42.2,304.1,42.2z"/>
		<g>
			<path class="st0" d="M304,39h-0.8v1.9h-1v-5.6h2.1c1,0,1.9,0.8,1.9,1.8c0,0.7-0.4,1.3-1.1,1.6l1.2,2.1h-1.2L304,39z M303.2,38
				h1.2c0.4,0,0.8-0.4,0.8-0.9c0-0.5-0.4-0.8-0.8-0.8h-1.2V38z"/>
		</g>
	</g>
	<path class="st0" d="M53.2,32.9c-1.2,1.5-3.1,2.5-5.3,2.5c-3.7,0-6.7-3-6.7-6.7c0-3.7,3-6.7,6.7-6.7c2.1,0,4,1,5.3,2.5l6.1-6.1
		c-2.8-3.1-6.8-5-11.3-5c-8.4,0-15.8,6-15.8,15.3S39.5,43.9,48,43.9c4.5,0,8.5-1.9,11.3-5L53.2,32.9z"/>
	<path class="st0" d="M158.9,43.2V14.1H150v3.1l-0.8-0.7c-2.2-2-4.7-3.1-7.7-3.1c-7.9,0-14.5,7-14.5,15.3s6.6,15.3,14.5,15.3
		c2.9,0,5.4-1.1,7.7-3.1l0.8-0.7v3.1H158.9z M142.9,35.5c-3.8,0-6.9-3.1-6.9-6.9s3.1-6.9,6.9-6.9s6.9,3.1,6.9,6.9
		S146.7,35.5,142.9,35.5z"/>
	<path class="st0" d="M230.7,43.2V14.1h-8.9v3.1l-0.8-0.7c-2.2-2-4.7-3.1-7.7-3.1c-7.9,0-14.5,7-14.5,15.3s6.6,15.3,14.5,15.3
		c2.9,0,5.4-1.1,7.7-3.1l0.8-0.7v3.1H230.7z M214.7,35.5c-3.8,0-6.9-3.1-6.9-6.9s3.1-6.9,6.9-6.9c3.8,0,6.9,3.1,6.9,6.9
		S218.5,35.5,214.7,35.5z"/>
	<path class="st0" d="M172.5,43.2v-3.1l0.8,0.7c2.2,2,4.7,3.1,7.7,3.1c7.9,0,14.5-7,14.5-15.3s-6.6-15.3-14.5-15.3
		c-2.9,0-5.4,1.1-7.7,3.1l-0.8,0.7V0.7h-8.9v42.5H172.5z M172.7,28.6c0-3.8,3.1-6.9,6.9-6.9c3.8,0,6.9,3.1,6.9,6.9s-3.1,6.9-6.9,6.9
		C175.8,35.5,172.7,32.4,172.7,28.6z"/>
</g>
</svg>
